# xmcd
#
# Track frame offsets:
#	150
#	20330
#	38484
#	54422
#	72427
#	92681
#	109538
#	124050
#	140854
#	161332
#	179306
#	197311
#	217415
#	235795
#	260610
#	275707
#	304771
#	320300
#	339635
#
# Disc length: 4780 seconds
#
# Revision: 1
# Processed by: cddbd v1.5.2PL0 Copyright (c) Steve Scherf et al.
# Submitted via: audiograbber 1.83.01
#
DISCID=1312aa13
DTITLE=Various Artist - Moribund  Death Cult Vol. #1
DYEAR=2007
DGENRE=metal
TTITLE0=Azrael - Worship (edit)
TTITLE1=Dodsferd - ...And Disease Was Spread... (edit)
TTITLE2=Merrimack - Redeem Restless Souls
TTITLE3=Horna - Raiskattu Saastaiscssa Yallosa (edit)
TTITLE4=Hiems - Painted Black (edit)
TTITLE5=Godless Rising - Into Obscurity
TTITLE6=I Shalt Become - The Funeral Rain
TTITLE7=Fear Of Eternity - Toward The Castle (edit)
TTITLE8=Catacombs - In The Depths Of R'lyeh
TTITLE9=Drawn And Quartered - Hail Infernal Darkness
TTITLE10=Hacavitz - Ultimate Covenant
TTITLE11=Krohm - The Waning (edit)
TTITLE12=Sargeist - Remains Of An Unholy Past (edit)
TTITLE13=Blood Ritual - Ritual Of Lust
TTITLE14=Summon - Blood Red Skies
TTITLE15=Winter Of Apokalypse - True Pagan Hearts
TTITLE16=Draugar - Through The Dark Until You Die (edit)
TTITLE17=Masochist - Eve Of Anti-Creation
TTITLE18=Leviathan - A Bouquet Of Blood For Skull
EXTD=
EXTT0=
EXTT1=
EXTT2=
EXTT3=
EXTT4=
EXTT5=
EXTT6=
EXTT7=
EXTT8=
EXTT9=
EXTT10=
EXTT11=
EXTT12=
EXTT13=
EXTT14=
EXTT15=
EXTT16=
EXTT17=
EXTT18=
PLAYORDER=
